<svg width="24" height="24" viewBox="0 0 24 24" fill="none" xmlns="http://www.w3.org/2000/svg">
<path d="M22.0002 11.9996C22.0002 17.5229 17.5228 21.9996 12.0002 21.9996C6.47766 21.9996 1.99951 17.5229 1.99951 11.9996C1.99951 6.47626 6.47693 1.99957 11.9995 1.99957C17.5221 1.99957 21.9995 6.47699 21.9995 11.9996H22.0002ZM20.387 11.9996C20.387 7.36651 16.6311 3.61133 11.9988 3.61133C7.36645 3.61133 3.60981 7.36724 3.60981 11.9996C3.60981 16.6319 7.36572 20.3878 11.9981 20.3878C16.6304 20.3878 20.3863 16.6319 20.3863 11.9996H20.387Z" fill="#222222"/>
<path d="M16.9926 8.62823C17.301 8.77806 17.8028 9.09444 17.9039 9.44283C17.9905 9.73958 17.8581 10.1418 17.6072 10.3229C16.9395 10.8044 16.4456 10.0327 15.8165 9.8945C15.3641 9.79486 14.5168 9.8705 14.644 10.5222C14.671 10.6618 14.7793 10.6429 14.8688 10.6902C15.7699 11.168 17.0115 11.3433 17.6821 12.2125C18.4909 13.2606 18.0719 14.7399 16.978 15.3749C15.7525 16.0862 13.8047 15.7189 12.897 14.633C12.2642 13.8766 13.1487 12.8416 14.0004 13.4569C14.1509 13.5653 14.2607 13.7253 14.4288 13.8286C14.9132 14.1254 15.7023 14.2883 16.2042 13.9392C16.6398 13.6359 16.5598 13.2278 16.13 12.9638C15.3677 12.4961 14.0891 12.3761 13.4796 11.6764C12.7501 10.8378 12.889 9.51847 13.7378 8.81951C14.6397 8.07691 15.9678 8.13074 16.9926 8.62895V8.62823Z" fill="#222222"/>
<path d="M7.13914 8.37248C7.27224 8.44739 7.42207 8.70923 7.48026 8.84887C7.79083 9.59729 8.01703 10.4512 8.28105 11.212C8.41342 11.5923 8.5967 11.9975 8.71235 12.3517C8.74508 12.452 8.74944 12.5822 8.78872 12.687C8.84399 12.679 8.87891 12.567 8.89491 12.5211C9.34294 11.265 9.69788 9.97186 10.1437 8.71505C10.6419 7.84226 11.9388 8.35502 11.6573 9.34927C11.5547 9.71294 11.3518 10.1384 11.226 10.5254C10.9496 11.3756 10.7183 12.1604 10.4347 13.007C10.2157 13.6609 9.97208 14.5809 9.6986 15.1795C9.51313 15.5861 9.07674 15.8217 8.6258 15.7396C8.03812 15.6326 7.89847 14.9817 7.72246 14.4973C7.2737 13.2608 6.86203 11.9836 6.43509 10.7297C6.28017 10.2752 5.9616 9.62202 5.88014 9.17544C5.79868 8.72887 6.20308 8.24883 6.65984 8.24738C6.77112 8.24738 7.04386 8.31938 7.13842 8.37248H7.13914Z" fill="#222222"/>
</svg>
