<svg width="18" height="18" viewBox="0 0 18 18" fill="none" xmlns="http://www.w3.org/2000/svg">
<path d="M13.1668 8.18042C12.9826 8.18042 12.806 8.25358 12.6757 8.38382C12.5455 8.51405 12.4723 8.69069 12.4723 8.87486V13.861C12.4723 14.0452 12.3992 14.2218 12.2689 14.352C12.1387 14.4823 11.9621 14.5554 11.7779 14.5554H4.139C3.95482 14.5554 3.77818 14.4823 3.64795 14.352C3.51772 14.2218 3.44455 14.0452 3.44455 13.861V6.22209C3.44455 6.03791 3.51772 5.86127 3.64795 5.73104C3.77818 5.60081 3.95482 5.52764 4.139 5.52764H9.12511C9.30929 5.52764 9.48592 5.45448 9.61615 5.32424C9.74639 5.19401 9.81955 5.01738 9.81955 4.8332C9.81955 4.64902 9.74639 4.47238 9.61615 4.34215C9.48592 4.21192 9.30929 4.13875 9.12511 4.13875H4.139C3.58646 4.13875 3.05656 4.35825 2.66586 4.74895C2.27516 5.13965 2.05566 5.66955 2.05566 6.22209V13.861C2.05566 14.4135 2.27516 14.9434 2.66586 15.3341C3.05656 15.7248 3.58646 15.9443 4.139 15.9443H11.7779C12.3304 15.9443 12.8603 15.7248 13.251 15.3341C13.6417 14.9434 13.8612 14.4135 13.8612 13.861V8.87486C13.8612 8.69069 13.7881 8.51405 13.6578 8.38382C13.5276 8.25358 13.351 8.18042 13.1668 8.18042ZM15.889 2.48598C15.8185 2.31629 15.6837 2.18144 15.514 2.11098C15.4305 2.07539 15.3409 2.05652 15.2501 2.05542H11.0834C10.8993 2.05542 10.7226 2.12858 10.5924 2.25882C10.4622 2.38905 10.389 2.56569 10.389 2.74986C10.389 2.93404 10.4622 3.11068 10.5924 3.24091C10.7226 3.37114 10.8993 3.44431 11.0834 3.44431H13.5765L6.42372 10.5901C6.35863 10.6547 6.30697 10.7315 6.27171 10.8161C6.23646 10.9008 6.2183 10.9915 6.2183 11.0832C6.2183 11.1749 6.23646 11.2656 6.27171 11.3503C6.30697 11.4349 6.35863 11.5117 6.42372 11.5763C6.48828 11.6413 6.56508 11.693 6.64971 11.7283C6.73433 11.7635 6.8251 11.7817 6.91677 11.7817C7.00845 11.7817 7.09922 11.7635 7.18384 11.7283C7.26847 11.693 7.34527 11.6413 7.40983 11.5763L14.5557 4.42348V6.91653C14.5557 7.10071 14.6288 7.27734 14.7591 7.40758C14.8893 7.53781 15.0659 7.61098 15.2501 7.61098C15.4343 7.61098 15.6109 7.53781 15.7412 7.40758C15.8714 7.27734 15.9446 7.10071 15.9446 6.91653V2.74986C15.9435 2.65912 15.9246 2.56946 15.889 2.48598Z" fill="#E83A4F"/>
</svg>
