<svg width="43" height="43" viewBox="0 0 43 43" fill="none" xmlns="http://www.w3.org/2000/svg">
<path d="M0 12C0 5.37258 5.37258 0 12 0H31C37.6274 0 43 5.37258 43 12V31C43 37.6274 37.6274 43 31 43H12C5.37258 43 0 37.6274 0 31V12Z" fill="white"/>
<path d="M22.266 34.1511C22.076 34.3533 21.8104 34.4697 21.5329 34.4697H10.3549C9.47253 34.4697 9.0226 33.4102 9.63536 32.7752L20.7051 21.3056C20.8936 21.1103 21.1533 21 21.4246 21H32.9534C33.8142 21 34.2674 22.0122 33.6828 22.6441C29.8016 26.8401 26.3797 29.7724 22.266 34.1511Z" fill="#FF999E"/>
<path d="M22.266 28.1511C22.076 28.3533 21.8104 28.4697 21.5329 28.4697H10.3549C9.47253 28.4697 9.0226 27.4102 9.63536 26.7752L20.7051 15.3056C20.8936 15.1103 21.1533 15 21.4246 15H32.9534C33.8142 15 34.2674 16.0122 33.6828 16.6441C29.8016 20.8401 26.3797 23.7724 22.266 28.1511Z" fill="#FF8489"/>
<path d="M22.266 22.1511C22.076 22.3533 21.8104 22.4697 21.5329 22.4697H10.3549C9.47253 22.4697 9.0226 21.4102 9.63536 20.7752L20.7051 9.30555C20.8936 9.11029 21.1533 9 21.4246 9H32.9534C33.8142 9 34.2674 10.0122 33.6828 10.6441C29.8016 14.8401 26.3797 17.7724 22.266 22.1511Z" fill="#FD6566"/>
</svg>
